/* XPM */
static const char *htmlbutcher_xpm[] = {
/* columns rows colors chars-per-pixel */
"32 32 256 2",
"   c #28221F",
".  c #332F2D",
"X  c #504C4A",
"o  c #5C5856",
"O  c #55575B",
"+  c #625D5A",
"@  c #6D6A69",
"#  c #706D6B",
"$  c #76726F",
"%  c #757372",
"&  c #7A7775",
"*  c #7C7877",
"=  c #71777C",
"-  c #7E7A79",
";  c #AC4900",
":  c #A55B1D",
">  c #996538",
",  c #DF5B00",
"<  c #E25E00",
"1  c #E65A00",
"2  c #DF7E00",
"3  c #E36300",
"4  c #E36C02",
"5  c #EE6600",
"6  c #E37402",
"7  c #EA7404",
"8  c #E17C03",
"9  c #E6730B",
"0  c #EB7808",
"q  c #F67405",
"w  c #FF7F07",
"e  c #E46E14",
"r  c #E2641B",
"t  c #E66C19",
"y  c #E86E15",
"u  c #E67414",
"i  c #E67419",
"p  c #E77B1A",
"a  c #EC7E1E",
"s  c #E87815",
"d  c #D46E3A",
"f  c #D6733C",
"g  c #E57B22",
"h  c #E77F2B",
"j  c #E17C3A",
"k  c #BB5345",
"l  c #BE5E55",
"z  c #8B7C5B",
"x  c #AB7546",
"c  c #80746A",
"v  c #817E7C",
"b  c #C35F4D",
"n  c #CA6A4F",
"m  c #D97946",
"M  c #C4685A",
"N  c #D07454",
"B  c #D57A5A",
"V  c #C66E60",
"C  c #CC7462",
"Z  c #CD7868",
"A  c #D47C66",
"S  c #DF880A",
"D  c #DE930C",
"F  c #DC9A0E",
"G  c #DA9B03",
"H  c #DB9314",
"J  c #DC9A17",
"K  c #E58A0B",
"L  c #FF810F",
"P  c #E39C0C",
"I  c #E99C0D",
"U  c #E79407",
"Y  c #E48E12",
"T  c #E58617",
"R  c #E39611",
"E  c #E79315",
"W  c #DDA30B",
"Q  c #DFA90C",
"!  c #D3A909",
"~  c #DEA812",
"^  c #E3AC0A",
"/  c #EEAB0A",
"(  c #E5A70A",
")  c #F1AB0A",
"_  c #F0A50B",
"`  c #E9B707",
"'  c #EBBB05",
"]  c #E6B30A",
"[  c #EAB408",
"{  c #F1BF05",
"}  c #E6A412",
"|  c #EBB218",
" . c #CE843F",
".. c #E68526",
"X. c #E8822D",
"o. c #E39125",
"O. c #E98A3D",
"+. c #E98537",
"@. c #E29E34",
"#. c #F2913E",
"$. c #E9AD2B",
"%. c #EEC103",
"&. c #F3C504",
"*. c #F4CB02",
"=. c #F8CB01",
"-. c #F9CC0A",
";. c #F6D200",
":. c #F9D301",
">. c #FCDC01",
",. c #FCDB0A",
"<. c #F9D514",
"1. c #FDE201",
"2. c #FEEB00",
"3. c #F8CE2B",
"4. c #F9D527",
"5. c #F7C736",
"6. c #FAD536",
"7. c #AD937D",
"8. c #B8897D",
"9. c #DE834C",
"0. c #DD8452",
"q. c #DC875F",
"w. c #E98E45",
"e. c #EA9244",
"r. c #E68F57",
"t. c #EA9C57",
"y. c #E1A940",
"u. c #EDA05E",
"i. c #F4A55E",
"p. c #D3826D",
"a. c #DC8569",
"s. c #CF8175",
"d. c #D38673",
"f. c #D58B7D",
"g. c #D98A75",
"h. c #DB9379",
"j. c #E89C67",
"k. c #E0947B",
"l. c #C6AD70",
"z. c #EEA56D",
"x. c #ECA266",
"c. c #F1A56E",
"v. c #F1AC79",
"b. c #ECB97B",
"n. c #F8D455",
"m. c #FAD950",
"M. c #F7D04F",
"N. c #FEE15E",
"B. c #F8D96C",
"V. c #EFD370",
"C. c #F8D378",
"Z. c #787D82",
"A. c #7F8181",
"S. c #848382",
"D. c #8E8C8B",
"F. c #8B8785",
"G. c #908E8C",
"H. c #93918F",
"J. c #959291",
"K. c #9A9897",
"L. c #9D9A99",
"P. c #989899",
"I. c #A19994",
"U. c #A2A09F",
"Y. c #A5A3A3",
"T. c #ADABAA",
"R. c #A3A6AA",
"E. c #B0ADAC",
"W. c #AAADB0",
"Q. c #B7B5B4",
"!. c #BBBCBC",
"~. c #DB9584",
"^. c #DA9889",
"/. c #DB9E94",
"(. c #E29F8E",
"). c #E69B86",
"_. c #C8A282",
"`. c #DEA094",
"'. c #D9A498",
"]. c #DCB99B",
"[. c #EAA089",
"{. c #F3AE83",
"}. c #EFB88A",
"|. c #F2BB8C",
" X c #F2B58B",
".X c #E5AC9F",
"XX c #E5A694",
"oX c #F2BC93",
"OX c #F8BF93",
"+X c #CEB5A8",
"@X c #E5AFA2",
"#X c #EDB7A4",
"$X c #F2BCA7",
"%X c #F0C38E",
"&X c #F4C195",
"*X c #F6C59A",
"=X c #FFE89F",
"-X c #DAC5BD",
";X c #E8CAAF",
":X c #F5CBA4",
">X c #F4C6AD",
",X c #F3C3B3",
"<X c #F1C5BA",
"1X c #F5CBBC",
"2X c #F9CCBE",
"3X c #F8C5B3",
"4X c #F5D3B6",
"5X c #F2DEB2",
"6X c #E8C1B8",
"7X c #FAE7B7",
"8X c #FBE5A7",
"9X c #BEBFC1",
"0X c #BCC2C8",
"qX c #C4C2C2",
"wX c #CECCCB",
"eX c #D2CECC",
"rX c #C9CFD5",
"tX c #D3D4D4",
"yX c #DCDBDA",
"uX c #F7CEC0",
"iX c #F9CFC1",
"pX c #E9D0CA",
"aX c #FAD5C5",
"sX c #F6D3CA",
"dX c #FAD5C9",
"fX c #FAD8CA",
"gX c #F7DDC5",
"hX c #ECD7D3",
"jX c #FADDD3",
"kX c #FBE2CB",
"lX c #F8E6C8",
"zX c #FDE3D4",
"xX c #FFE8D1",
"cX c #FCE9DD",
"vX c #F7ECD3",
"bX c #FAF0D9",
"nX c #FDF4D1",
"mX c #D9DEE1",
"MX c #D9E1E8",
"NX c #E5E4E4",
"BX c #E2E6E9",
"VX c #ECECEC",
"CX c #E9E6E4",
"ZX c #FCEAE1",
"AX c #F5EBE6",
"SX c #FEF4E4",
"DX c #F3F1EF",
"FX c #FDF4EB",
"GX c #E9ECF0",
"HX c #ECF1F3",
"JX c #F4F4F3",
"KX c #FAF9F6",
"LX c #F6FBFE",
"PX c #FDFDFD",
"IX c #FAF7F5",
"UX c None",
/* pixels */
"UXUXUXUXi i u UXp t i UXt t s UXt y s UXi u UXa q 3 UX9 3 UXUXUX",
"UXUXi Y P K X.e.9 } / { _ I ( ^ R E D H T 9 kX;Xx *Xc _.i.a UXUX",
"UXUXI ] ~ 8 z.SXi U %.' ' ` ] } K T vXb.4 t.PXmX= PXT.P.PX-XUXUX",
"UX/ ` ( D 4 kXLX4XoXV.^ ^ W D 4 +. XFX:XoXPXIXS.K.PXyXo $ Z. .q ",
"r I ] W @.z.PXY.9XPXoX8 F J %X X7Xm.-.<.N.+X@ H.JXPXVXQ.yXPX}.1 ",
"t I ] G 5XPXPX% + JXgXO.4 g PXnX-.:.>.>.>.! eXPXPXKXPXPXPXPXAXUX",
"UX] ^ F ..xXBX* L.* PXPXxXSXPX5.=.1.1.1.1.>.=XLXKXPXPXKXKXBX7.: ",
"T P W H 4 xXrXv PXD.& yXmXW.v z l.,.2.2.1.>.M.PXPXPXPXPXKX= > w ",
"t Y G H 4 kXrX- JXJXT.% * J.qXGXLXB.2.1.1.=.4.PXPXPXPXPXPX0X> L ",
"p S y.lXt.xXLX% NXDXKXJXJXPXPXKXLXlX1.,.:.-.n.PXPXPXPXPXPXPXI.UX",
"UX6 O.PXPXNXT.o Q.KXVXJXJXJXJXKXPXFX,.<.3.6.SXPXPXPXPXPXPXPX;X; ",
"u X.kXVXF.# J.!.yXJXJXJXJXJXIXKXPXPX4.4.n.B.PXPXPXPXPXPXPXPX&X5 ",
", *XMX@ K.CXIXJXJXVXJXJXJXIXKXKXPXPX3.n.C.nXPXPXPXPXPXPXPXPX:Xe ",
"#.].O T.PXJXJXIXJXJXJXJXJXIXKXKXPXPX5.8XbXPXPXPXPXPXPXPXPXPXKXUX",
"UXDXQ.@ G.!.qXY.S.NXJXJXJXIXKXKXPXPX7XPXPXPXPXPXPXPXPXPXPXPX:Xe ",
"3 &XPXHXR.S.v K.# qXKXJXJXIXKXKXPXPXPXPXPXPXPXPXPXPXPXPXKXPX|.1 ",
"< |.ZXOXSXPXPXPXT.K.PXJXJXIXIXKXKXPXPXPXPXPXPXPXPXPXPXPXPXPX4XO.",
"K | $.4 u g gXPXwX- KXVXVXJXJXJXKXPXPXPXPXPXPXPXPXPXPXPXPXPXIXUX",
"UX' ' ] P H cXPXJX% NXVXVXJXJXJXKXKXPXPXPXPXPXPXPXPXNXtXPXPX&X< ",
"r / *.` ^ ~ ..>XPXv qXIXVXVXJXJXIXKXPXPXPXPXPXPXPXPXX   CXPX*X< ",
"r ) ;.' ] Q 6 x.PXL.U.PXCXVXJXJXJXKXKXPXPXPXPXPXPXPXY.A.KXhXh.j ",
"UX=.;.%.[ ^ S h PXqXS.KXVXVXVXJXJXIXPXVXPXPXPXPXPXPXPXsXf.p.k.UX",
"I &.:.&.` ^ F u.PXNX% VXVXVXVXJXVXPXQ.  T.PXPXPXAX@Xp.d.#XjXv.3 ",
"r ) >.&.' ^ W bXPXPX& tXJXCXVXVXVXKXqX. !.PXpX^.p.~.1XcX1X`.9.7 ",
"r ) >.*.' ] Q T |.PXD.T.KXCXVXVXVXJXPXDX6Xd.p.XXdXFXjXd.Z s.p.UX",
"UX:.>.*.%.[ ^ 2 w.PXE.D.IXCXCXHXHXhX'.A g.#XjXZXcXZXfXM M V N UX",
"Y &.>.;.&.` ^ D i IXtX& VXHXCX-X~.A k.,XdX,X~.<XzXfXzX~.k M f 7 ",
"r ) 1.:.&.' ^ F e.FXHX% eX+Xd.A ).3X1X.X~.f.Z ~.fXuXdX,Xb l d 0 ",
"i _ 1.:.*.' ^ G lXPXKX8.C A [.3X$X(.f.^.`.~.p.C ,X2X1XaXp.k n UX",
"UXUX&.>.;.%.` Q o.|.PX.Xg.2X<Xf.f.^./././.~.f.C (.dXuXiX@Xd g UX",
"UXUXu E { [ R R 8 X.&Xj.a.{.r.m f.0.m q.h.0.m N B c.z.$Xj.9 UXUX",
"UXUXUXr UXUXt i UXu 3 4 UX4 7 s UX0 7 s UX7 7 UXUX4 4 UXUXUXUXUX"
};
